<svg version="1.1" id="Layer_1" xmlns="http://www.w3.org/2000/svg" xmlns:xlink="http://www.w3.org/1999/xlink" x="0px" y="0px"
	 width="100%" viewBox="0 0 1024 1024" enable-background="new 0 0 1024 1024" xml:space="preserve">
<path fill="#000000" opacity="1.000000" stroke="none" 
	d="
M583.289551,532.000000 
	C583.296326,676.659668 583.302612,820.819336 583.307922,964.979004 
	C583.307983,966.645569 583.201172,968.318237 583.309570,969.977295 
	C583.516968,973.152466 582.176514,974.505127 578.941589,974.435303 
	C553.619507,973.888977 528.306763,975.312927 502.971954,974.603027 
	C484.830658,974.094727 466.661591,974.329529 448.510315,974.599121 
	C443.964996,974.666626 442.852783,973.228943 442.855713,968.924805 
	C442.970123,800.433105 442.998413,631.941345 442.944763,463.449585 
	C442.943329,459.025360 444.040436,457.469513 448.825562,457.492920 
	C491.322510,457.700928 533.820801,457.622284 576.318726,457.636444 
	C583.251282,457.638733 583.278992,457.657349 583.283264,464.504822 
	C583.297058,486.836548 583.288818,509.168274 583.289551,532.000000 
M499.141815,846.500000 
	C499.131073,860.633301 499.207550,874.767639 499.054199,888.899353 
	C499.010468,892.927063 500.477173,894.685547 504.557068,894.597717 
	C510.539612,894.468811 516.529419,894.520752 522.512817,894.650635 
	C525.986389,894.726074 527.710449,893.530090 527.695068,889.766296 
	C527.605225,867.818420 527.608582,845.869873 527.677795,823.921875 
	C527.688782,820.441040 526.173645,819.209534 522.852356,819.265625 
	C516.535889,819.372375 510.214447,819.370544 503.898468,819.243835 
	C500.450104,819.174683 499.115265,820.754578 499.141357,824.051514 
	C499.197998,831.200562 499.149078,838.350464 499.141815,846.500000 
M514.319580,606.885437 
	C511.325012,606.808533 508.319122,606.868835 505.338531,606.622620 
	C500.865723,606.253113 498.969238,608.061951 499.061249,612.634277 
	C499.242096,621.623047 499.112579,630.618103 499.108734,639.610596 
	C499.103668,651.434143 499.228210,663.259888 499.024658,675.080078 
	C498.942352,679.859863 500.309998,682.193604 505.557587,681.759216 
	C510.354156,681.362183 515.209351,681.676941 520.038696,681.671143 
	C527.569458,681.662048 527.654419,681.597412 527.659729,674.252075 
	C527.673096,655.767273 527.669128,637.282471 527.665283,618.797668 
	C527.662659,606.405334 527.657410,606.405334 514.319580,606.885437 
M527.624817,503.037140 
	C527.534607,500.519653 525.793091,500.168793 523.818481,500.159180 
	C516.997192,500.125946 510.174835,500.166199 503.355042,500.051483 
	C500.065552,499.996124 499.030975,501.606873 499.037018,504.661438 
	C499.080261,526.623352 499.076111,548.585510 499.014709,570.547424 
	C499.005768,573.753418 500.360870,575.004944 503.519653,574.946899 
	C509.507233,574.836914 515.511719,574.686035 521.483948,575.012451 
	C526.213684,575.270996 527.827148,573.709778 527.772705,568.821960 
	C527.531616,547.195007 527.660767,525.563965 527.624817,503.037140 
M499.115479,766.499756 
	C499.122559,771.995239 499.192627,777.491577 499.113312,782.985779 
	C499.065338,786.312378 500.377960,787.825378 503.860840,787.737610 
	C510.185364,787.578186 516.518982,787.590393 522.844360,787.732788 
	C526.197632,787.808350 527.699890,786.604248 527.687927,783.114990 
	C527.613037,761.298462 527.607483,739.481445 527.676331,717.664917 
	C527.687561,714.105591 526.003052,713.032471 522.752380,713.092468 
	C517.092041,713.197021 511.428101,713.084045 505.765991,713.116882 
	C499.438019,713.153564 499.128387,713.486267 499.123566,720.034546 
	C499.112396,735.189636 499.118225,750.344788 499.115479,766.499756 
z"/>
<path fill="#000000" opacity="1.000000" stroke="none" 
	d="
M392.000122,282.937256 
	C477.618134,282.940430 562.736206,282.943207 647.854309,282.946899 
	C649.186829,282.946960 650.519714,282.981964 651.851746,282.959564 
	C655.285095,282.901855 656.589111,284.316193 655.979492,287.903503 
	C652.943787,305.765442 650.077576,323.656036 647.119690,341.531281 
	C644.217041,359.072723 641.218140,376.598450 638.372559,394.149048 
	C636.539795,405.452972 627.712158,413.371155 616.393616,413.375641 
	C547.599548,413.402954 478.805511,413.404144 410.011444,413.367554 
	C398.900360,413.361664 389.616486,405.802124 387.805542,394.846924 
	C381.949829,359.422577 376.420166,323.944061 370.479767,288.534271 
	C369.652374,283.602386 371.344879,282.759003 375.511292,282.902222 
	C380.835022,283.085236 386.170044,282.940460 392.000122,282.937256 
M518.499939,376.661346 
	C528.823547,376.660858 539.149902,376.523865 549.469543,376.726593 
	C553.641052,376.808502 555.027405,375.205353 554.961548,371.153473 
	C554.788452,360.499756 554.781250,349.839050 554.973572,339.185883 
	C555.046143,335.165100 553.388794,334.042999 549.626587,334.059174 
	C525.150085,334.164490 500.672638,334.183167 476.196381,334.056885 
	C472.189545,334.036194 471.005920,335.604156 471.061615,339.378693 
	C471.218842,350.032928 471.272644,360.694183 471.047546,371.345917 
	C470.959137,375.528534 472.453491,376.791077 476.539520,376.731720 
	C490.190430,376.533325 503.846069,376.659149 518.499939,376.661346 
M634.392151,339.124664 
	C635.371277,335.330353 633.750244,334.037201 630.021301,334.064636 
	C615.355835,334.172638 600.688477,334.196686 586.023438,334.072021 
	C582.359619,334.040894 580.968384,335.396637 581.007080,339.033875 
	C581.122314,349.865417 581.140808,360.700623 580.975525,371.531006 
	C580.916748,375.383514 582.223022,376.804749 586.192261,376.734650 
	C598.021545,376.525665 609.867310,376.369659 621.685181,376.792755 
	C627.031189,376.984161 629.013306,375.047668 629.652039,370.012695 
	C630.927368,359.958069 632.636597,349.958496 634.392151,339.124664 
M442.887878,334.371307 
	C427.096252,334.289398 411.304382,334.237427 395.513214,334.100861 
	C392.270477,334.072815 390.959320,335.261688 391.546814,338.615234 
	C393.493164,349.725830 395.456573,360.837097 397.112610,371.992737 
	C397.642181,375.559967 399.142059,376.735474 402.630005,376.696350 
	C415.099396,376.556580 427.572479,376.546173 440.041565,376.698486 
	C443.716125,376.743378 445.029694,375.449829 444.973969,371.769775 
	C444.810394,360.964081 444.931152,350.154266 444.903473,339.346130 
	C444.899323,337.720886 445.173126,335.970184 442.887878,334.371307 
z"/>
<path fill="#000000" opacity="1.000000" stroke="none" 
	d="
M534.999878,231.366791 
	C500.682648,231.367416 466.864563,231.249298 433.049072,231.493149 
	C427.812317,231.530914 426.315704,229.594254 425.560577,224.821671 
	C420.546570,193.131744 415.255096,161.485733 410.076904,129.821655 
	C409.731079,127.706947 409.573944,125.561386 409.278931,122.994095 
	C478.628845,122.994095 547.615601,122.994095 617.206604,122.994095 
	C615.831848,131.739120 614.567871,140.070145 613.206482,148.385208 
	C608.962524,174.305832 604.569580,200.202927 600.524292,226.154327 
	C599.841492,230.534805 597.965149,231.468094 593.971619,231.435760 
	C574.482178,231.277969 554.990723,231.365845 534.999878,231.366791 
M481.349915,185.493347 
	C481.359253,189.656021 481.173218,193.830292 481.419006,197.978958 
	C481.913849,206.331894 486.606415,210.740662 494.890839,210.779526 
	C507.045868,210.836533 519.201599,210.857941 531.356445,210.787399 
	C539.890991,210.737869 544.595032,205.985504 544.655151,197.449005 
	C544.717346,188.624359 544.693787,179.798950 544.672363,170.973953 
	C544.648865,161.327881 539.943420,156.501923 530.320374,156.436829 
	C518.831726,156.359116 507.341675,156.365906 495.852936,156.442032 
	C486.459137,156.504257 481.747467,161.093140 481.405334,170.511871 
	C481.236145,175.168274 481.357758,179.835236 481.349915,185.493347 
M459.845947,164.912415 
	C458.148071,160.001495 454.544952,157.063644 449.557434,156.681549 
	C443.439606,156.212830 437.260620,156.448471 431.110413,156.538757 
	C428.215881,156.581253 427.080261,158.088654 427.599854,161.145065 
	C429.769440,173.907364 431.638336,186.721802 433.896179,199.467743 
	C435.980255,211.232895 436.136993,211.205124 448.137878,210.779831 
	C454.766754,210.544922 460.170044,206.437378 460.414856,200.043076 
	C460.852783,188.604919 461.310272,177.124023 459.845947,164.912415 
M565.916504,188.223953 
	C565.896729,191.214554 565.736755,194.212021 565.882935,197.194489 
	C566.366821,207.066757 570.338806,210.874756 580.319214,210.785599 
	C591.892090,210.682236 590.163391,212.585144 592.160461,200.758087 
	C594.342896,187.832870 596.418701,174.889633 598.608704,161.965744 
	C599.282288,157.990814 598.229431,156.043533 593.737549,156.327652 
	C588.601562,156.652481 583.422974,156.248489 578.276367,156.472321 
	C570.826294,156.796356 566.230164,161.426147 566.000732,168.825302 
	C565.810059,174.973450 565.937927,181.131485 565.916504,188.223953 
z"/>
<path fill="#000000" opacity="1.000000" stroke="none" 
	d="
M665.615479,273.103943 
	C662.065430,273.439941 658.916504,273.889862 655.767273,273.891388 
	C561.166077,273.937286 466.564850,273.943542 371.963654,273.926514 
	C368.974518,273.925964 365.966034,273.775085 363.000000,273.417175 
	C354.250061,272.361420 348.445923,265.784637 348.547424,257.229340 
	C348.651947,248.418655 354.756989,241.802475 363.623047,240.957748 
	C365.110046,240.816071 366.618439,240.880890 368.116943,240.880920 
	C464.550262,240.882675 560.983582,240.887604 657.416870,240.892334 
	C658.083069,240.892365 658.749329,240.889542 659.415466,240.895325 
	C669.015808,240.978546 675.684937,245.804672 677.171326,253.742889 
	C678.834656,262.626038 675.110718,269.057709 665.615479,273.103943 
z"/>
<path fill="#000000" opacity="1.000000" stroke="none" 
	d="
M423.000122,80.660385 
	C489.303253,80.663033 555.106384,80.647011 620.909485,80.686104 
	C633.058350,80.693321 640.685974,92.267830 635.900208,103.286301 
	C633.675293,108.408798 629.687012,111.436668 624.223328,112.424690 
	C622.271240,112.777687 620.257874,112.936935 618.272339,112.938171 
	C547.971313,112.981995 477.670258,113.006218 407.369202,113.004456 
	C396.989014,113.004196 390.900330,108.160965 389.245941,98.795296 
	C387.666107,89.851425 394.436493,81.111847 403.510986,80.740517 
	C409.831207,80.481895 416.169769,80.671394 423.000122,80.660385 
z"/>
<path fill="#000000" opacity="1.000000" stroke="none" 
	d="
M442.000000,422.943146 
	C496.290253,422.942108 550.080505,422.939941 603.870789,422.940491 
	C611.794678,422.940582 612.906921,424.606079 610.003357,432.090118 
	C606.106812,442.133209 597.413940,447.913971 585.721375,447.941071 
	C556.411682,448.009064 527.101746,447.981750 497.791870,447.986450 
	C478.640564,447.989502 459.488403,448.090454 440.338257,447.941010 
	C427.280792,447.839142 418.308105,440.808441 415.536835,428.988861 
	C414.308472,423.749817 414.765472,423.041412 420.017303,422.973907 
	C427.177155,422.881897 434.339020,422.945831 442.000000,422.943146 
z"/>
<path fill="#000000" opacity="1.000000" stroke="none" 
	d="
M494.000000,71.070328 
	C468.342285,71.069168 443.184540,71.079453 418.026825,71.058365 
	C411.075348,71.052536 410.031982,69.402679 412.748688,62.982811 
	C415.872467,55.601002 421.516510,51.699635 429.443817,51.688385 
	C485.257172,51.609177 541.070801,51.605450 596.884155,51.671871 
	C605.729126,51.682400 612.869019,57.934410 614.688293,66.376572 
	C615.335205,69.378662 614.595459,70.897995 611.457092,70.981674 
	C609.958679,71.021629 608.459229,71.040894 606.960266,71.041367 
	C569.473511,71.053177 531.986755,71.061218 494.000000,71.070328 
z"/>
</svg>