<svg version="1.0" xmlns="http://www.w3.org/2000/svg" width="600.000000pt" height="600.000000pt" viewBox="0 0 600.000000 600.000000" preserveAspectRatio="xMidYMid meet" style="width: 637.2px; height: auto;"> <g transform="translate(0.000000,600.000000) scale(0.100000,-0.100000)" fill="#000000" stroke="none" class="">                                                                                    <path d="M2912 5009 c-146 -17 -276 -78 -391 -186 l-66 -62 544 0 545 -1 -40 41 c-151 156 -370 233 -592 208z m198 -33 c63 -10 98 -20 106 -31 9 -12 13 -13 17 -3 3 10 7 10 17 1 7 -6 19 -9 28 -6 9 4 13 2 9 -4 -4 -6 1 -17 10 -24 14 -12 15 -12 9 -1 -13 22 35 -6 63 -37 13 -14 20 -21 17 -14 -4 8 4 7 23 -3 30 -15 60 -44 45 -44 -5 0 -2 -5 6 -10 9 -6 -37 -9 -130 -9 -86 0 -150 5 -157 11 -15 12 -18 42 -3 33 6 -4 8 -11 5 -16 -4 -5 -2 -9 4 -9 5 0 13 5 16 10 4 6 11 8 16 4 5 -3 7 -9 5 -13 -3 -4 3 -7 12 -6 20 1 23 20 3 20 -8 0 -16 6 -19 14 -3 9 0 11 7 7 17 -11 41 12 34 32 -6 15 -5 16 13 2 18 -14 18 -14 5 3 -9 11 -10 17 -2 17 6 0 11 5 11 12 0 6 -3 8 -7 5 -3 -4 -12 -2 -19 4 -11 9 -15 7 -20 -6 -5 -13 -9 -14 -16 -3 -7 10 -8 9 -6 -4 2 -9 -6 -24 -17 -32 -11 -9 -15 -16 -8 -16 6 0 23 14 36 30 14 17 28 26 31 21 8 -13 -50 -66 -72 -66 -10 0 -32 -15 -50 -33 -18 -18 -32 -28 -32 -22 0 6 -5 8 -12 4 -15 -10 -157 -11 -151 -1 7 12 -12 8 -26 -5 -8 -8 -11 -8 -8 -2 4 7 -2 14 -12 17 -14 3 -18 13 -16 41 2 30 0 35 -11 25 -16 -13 -19 -23 -4 -14 6 3 10 2 10 -3 0 -17 -13 -21 -32 -11 -11 6 -17 13 -14 16 3 3 -8 16 -25 30 -16 14 -26 30 -22 35 3 6 1 8 -5 4 -6 -3 -13 -2 -16 3 -8 13 8 22 47 28 18 3 33 9 35 13 2 5 9 7 16 4 6 -2 30 0 51 5 58 13 99 13 205 -3z m-310 -108 c83 -85 95 -98 86 -98 -3 0 -23 16 -45 35 -31 29 -40 32 -45 20 -3 -9 -2 -14 2 -11 10 6 39 -11 31 -18 -7 -7 -289 -9 -296 -2 -8 8 27 47 37 41 4 -2 16 5 26 16 10 11 23 18 30 15 8 -3 11 1 7 10 -4 12 2 16 23 13 4 0 10 4 13 9 3 5 16 12 28 16 18 6 21 4 18 -13 -2 -11 3 -25 11 -32 8 -7 14 -8 13 -3 -5 26 3 25 24 -4 13 -17 27 -29 31 -25 3 4 -15 28 -41 55 -26 26 -42 48 -36 48 6 0 44 -33 83 -72z m-65 33 c3 -5 2 -12 -3 -15 -5 -3 -9 1 -9 9 0 17 3 19 12 6z m510 -41 c-3 -5 -12 -10 -18 -10 -7 0 -6 4 3 10 19 12 23 12 15 0z m-85 -59 c0 -5 -7 -12 -16 -15 -24 -9 -28 -7 -14 9 14 17 30 20 30 6z" class=""></path> <path d="M2786 4937 c3 -10 9 -15 12 -12 3 3 0 11 -7 18 -10 9 -11 8 -5 -6z"></path> <path d="M3129 4868 c-3 -11 -5 -48 -3 -48 11 0 23 40 14 45 -5 3 -10 5 -11 3z" class=""></path> <path d="M3425 4831 c6 -11 4 -13 -7 -9 -8 4 -15 1 -15 -6 0 -7 8 -12 18 -11 28 2 31 11 12 26 -14 12 -16 12 -8 0z"></path> <path d="M2619 4838 c-7 -23 -4 -35 7 -35 9 0 11 4 4 12 -5 7 -7 15 -3 18 3 4 3 7 0 7 -4 0 -7 -1 -8 -2z"></path> <path d="M2551 4816 c-8 -10 -9 -16 -1 -21 6 -4 9 -1 8 7 -2 7 3 12 10 10 8 -1 11 2 7 8 -8 13 -10 13 -24 -4z"></path> <path d="M2469 4655 l26 -85 505 0 505 0 26 85 27 85 -558 0 -558 0 27 -85z m116 0 c1 -43 -3 -62 -12 -62 -7 0 -10 4 -7 8 8 13 12 69 5 69 -4 0 -7 11 -7 23 0 13 5 24 11 24 6 0 10 -25 10 -62z m438 53 c-2 -5 -10 -8 -18 -8 -8 0 -16 3 -18 8 -3 4 5 7 18 7 13 0 21 -3 18 -7z m405 -13 c10 -21 9 -25 -4 -25 -8 0 -12 5 -9 10 4 6 1 17 -5 25 -7 8 -8 15 -3 15 5 0 15 -11 21 -25z m-888 -40 c0 -50 -14 -60 -24 -17 -4 15 -9 35 -12 45 -4 12 0 17 15 17 18 0 21 -6 21 -45z m425 0 l0 -45 -177 0 -178 0 0 45 0 45 178 0 177 0 0 -45z m425 0 l0 -45 -177 0 -178 0 0 45 0 45 178 0 177 0 0 -45z m104 18 c-11 -44 -22 -71 -33 -77 -5 -3 -8 2 -6 11 2 10 4 35 4 56 1 30 5 37 21 37 17 0 19 -4 14 -27z m-476 -18 c0 -14 -5 -28 -10 -31 -5 -3 -4 -11 2 -19 9 -11 7 -14 -9 -12 -19 1 -19 3 -6 24 18 27 19 39 3 25 -10 -8 -13 -5 -13 13 0 19 3 21 14 12 12 -10 14 -9 8 6 -4 10 -3 16 2 13 5 -3 9 -17 9 -31z m410 -12 c0 -10 2 -25 6 -34 4 -10 2 -16 -6 -16 -8 0 -13 13 -14 34 0 18 3 33 7 33 4 0 7 -8 7 -17z" class=""></path> <path d="M2540 4488 c37 -57 40 -66 40 -134 l0 -73 420 -1 420 0 0 73 c0 69 3 78 40 135 l40 62 -500 0 -500 0 40 -62z m90 31 c-12 -8 -10 -9 8 -4 13 4 61 8 107 10 65 3 85 0 89 -11 3 -7 2 -13 -3 -11 -5 1 -17 -9 -28 -22 -17 -20 -22 -22 -41 -12 -18 9 -22 9 -20 -1 2 -7 -3 -12 -10 -10 -10 2 -10 -2 -2 -17 12 -23 13 -34 2 -27 -4 2 -13 -4 -20 -15 -15 -23 -5 -25 20 -2 10 9 21 13 24 10 11 -10 -39 -45 -59 -41 -10 1 -21 -4 -24 -12 -3 -8 -19 -22 -35 -30 l-29 -15 2 53 c2 43 -4 63 -29 108 l-31 56 47 2 c35 1 43 -1 32 -9z m236 -8 c-12 -14 -12 -18 1 -30 13 -12 14 -11 9 5 -11 36 57 48 166 29 15 -2 28 1 30 7 5 13 68 -20 68 -35 0 -4 -5 -5 -12 -1 -7 4 -8 3 -4 -5 4 -6 12 -9 17 -6 10 7 119 -101 119 -116 0 -6 5 -7 12 -3 8 5 9 2 5 -9 -3 -9 -3 -16 1 -16 18 3 32 -2 32 -11 0 -7 -112 -10 -317 -9 -175 0 -327 -3 -338 -7 -18 -7 -19 -6 -6 10 8 9 20 15 26 12 8 -3 11 2 8 13 -3 11 1 18 11 18 12 0 13 -4 5 -14 -8 -9 -8 -13 0 -13 6 0 18 11 26 24 9 13 24 27 33 30 13 5 13 3 -2 -9 -11 -8 -15 -15 -9 -15 6 0 16 6 22 14 8 10 6 20 -10 40 -16 20 -19 30 -10 39 8 8 14 8 23 -1 9 -9 17 -4 35 20 20 28 28 30 24 6 0 -5 4 -8 9 -8 6 0 10 6 9 13 -4 28 2 44 16 44 13 0 13 -2 1 -16z m282 7 c7 -7 12 -9 12 -5 0 4 9 3 20 -3 16 -9 18 -8 14 5 -4 10 0 15 11 15 9 0 14 -3 12 -7 -3 -5 49 -6 115 -4 l119 3 -30 -49 c-24 -38 -30 -61 -32 -111 -2 -57 -4 -61 -19 -47 -11 10 -16 28 -15 50 2 29 0 34 -11 24 -16 -13 -19 -23 -4 -14 6 3 10 2 10 -4 0 -5 -5 -13 -10 -16 -11 -7 -70 53 -67 69 1 5 -3 10 -10 11 -14 0 -28 13 -28 26 0 5 -4 9 -10 10 -5 1 -23 10 -40 21 -16 11 16 -26 73 -82 56 -57 100 -106 97 -109 -3 -3 -58 48 -123 112 -64 64 -112 117 -106 117 5 0 15 -5 22 -12z" class=""></path> <path d="M2649 4388 c-3 -11 -5 -48 -3 -48 11 0 23 40 14 45 -5 3 -10 5 -11 3z"></path> <path d="M2804 4446 c-12 -10 -23 -11 -31 -5 -7 7 -14 6 -18 -1 -4 -6 -1 -9 7 -8 7 2 12 -2 11 -9 -4 -18 24 -37 33 -22 5 8 3 9 -6 4 -8 -5 -11 -3 -8 6 3 8 11 13 17 11 7 -1 10 2 7 7 -4 5 0 11 6 14 7 2 10 7 7 11 -3 3 -14 -1 -25 -8z"></path> <path d="M2733 4335 c0 -6 7 -11 16 -10 9 0 16 5 16 10 0 5 -7 10 -16 10 -9 1 -16 -4 -16 -10z"></path> <path d="M3261 4467 c-8 -10 -7 -14 2 -14 8 0 14 6 14 14 0 7 -1 13 -2 13 -2 0 -8 -6 -14 -13z"></path> <path d="M2280 4262 c0 -2 7 -16 15 -33 11 -19 26 -32 46 -36 l30 -6 -3 -168 -3 -169 635 0 635 0 -3 169 -3 170 27 3 c25 3 74 51 63 63 -5 5 -1439 12 -1439 7z m314 -24 c-5 -8 -2 -9 9 -5 9 3 19 1 23 -5 5 -7 2 -8 -6 -3 -9 5 -11 4 -6 -4 4 -6 12 -9 17 -5 5 3 7 9 5 13 -3 4 167 5 377 4 335 -3 383 -6 399 -20 10 -9 20 -14 23 -11 3 3 -1 11 -10 18 -8 7 -15 17 -15 23 0 5 9 2 19 -7 13 -12 21 -14 26 -6 4 7 39 10 100 8 51 -2 91 -6 89 -10 -2 -3 2 -9 8 -11 9 -4 7 -6 -3 -6 -35 -2 -40 -26 -40 -175 0 -92 -4 -148 -11 -152 -5 -4 -277 -7 -604 -8 -556 -2 -594 -1 -594 16 0 9 -5 20 -10 23 -8 5 -7 11 1 21 16 19 23 18 34 -8 9 -20 19 -23 72 -26 81 -4 93 11 93 122 0 95 -13 116 -71 116 -21 0 -41 5 -44 10 -3 6 -12 10 -18 10 -7 0 -6 -4 3 -10 12 -8 11 -10 -7 -10 -13 0 -22 -3 -21 -7 3 -11 -23 -56 -29 -50 -2 3 0 15 7 26 7 14 7 21 0 21 -5 0 -10 -6 -11 -12 0 -7 -6 -2 -12 11 -9 19 -9 25 0 28 19 7 -7 53 -34 59 -52 13 -17 22 87 21 84 0 108 -3 100 -12 -19 -23 2 -22 25 1 25 25 41 32 29 12z m-34 -218 l0 -90 -57 0 -58 0 0 90 0 90 58 0 57 0 0 -90z m-156 41 c3 -5 -1 -11 -9 -15 -9 -3 -15 0 -15 9 0 16 16 20 24 6z m11 -40 c3 -5 1 -12 -5 -16 -5 -3 -10 1 -10 9 0 18 6 21 15 7z m-16 -53 c-5 -10 -12 -18 -14 -18 -3 0 -5 8 -5 18 0 10 7 19 14 19 11 0 13 -5 5 -19z" class=""></path> <path d="M2489 4225 c0 0 -2 -10 -3 -22 -2 -13 0 -21 2 -18 8 8 32 -16 27 -26 -3 -4 3 -7 14 -6 11 0 18 4 15 8 -5 8 15 23 31 24 6 0 9 9 7 19 -2 12 1 16 9 10 8 -5 10 -3 4 6 -7 11 -10 10 -19 -1 -25 -31 -54 -50 -61 -39 -3 6 -2 9 3 8 9 -3 12 2 12 18 0 4 -7 1 -15 -6 -10 -8 -15 -9 -15 -2 0 6 8 15 18 21 15 9 14 10 -5 8 -13 -1 -23 -1 -24 -2z"></path> <path d="M2616 4188 c3 -5 10 -6 15 -3 13 9 11 12 -6 12 -8 0 -12 -4 -9 -9z"></path> <path d="M2701 4152 c-1 -7 -10 -22 -21 -34 -19 -21 -28 -44 -12 -35 4 3 7 -17 7 -44 0 -27 -3 -49 -6 -49 -15 0 3 -67 22 -82 34 -29 152 -18 134 12 -4 6 2 7 12 3 16 -6 17 -5 3 12 -14 17 -13 18 4 12 16 -6 17 -5 6 8 -16 19 -14 113 2 132 8 11 7 12 -5 7 -12 -4 -15 -1 -12 15 2 12 0 19 -5 16 -5 -3 -11 -1 -15 5 -3 5 -28 10 -55 10 -29 0 -50 5 -53 13 -4 9 -6 9 -6 -1z m109 -134 l0 -93 -54 0 -55 0 -3 93 -3 92 58 0 57 0 0 -92z"></path> <path d="M3045 4150 c-3 -5 -28 -10 -55 -10 -38 0 -52 -4 -59 -19 -6 -10 -7 -22 -3 -26 4 -5 0 -6 -8 -3 -12 5 -14 -4 -11 -50 2 -38 -1 -58 -10 -64 -10 -7 -9 -8 5 -4 16 5 18 2 14 -24 -6 -39 10 -48 87 -51 39 -2 60 2 63 9 2 7 10 19 19 27 9 10 10 15 2 15 -8 0 -8 5 2 17 8 9 9 14 4 11 -7 -4 -10 17 -10 57 0 35 3 58 7 52 6 -9 8 -9 8 0 0 6 -13 20 -30 29 -22 14 -27 21 -18 31 6 7 8 13 5 13 -3 0 -9 -4 -12 -10z m15 -132 l0 -93 -58 3 -59 4 -2 89 -2 89 61 0 60 0 0 -92z"></path> <path d="M3181 4151 c-10 -6 -10 -10 -1 -16 9 -6 9 -9 -1 -16 -10 -6 -14 -31 -15 -77 0 -38 -4 -74 -8 -80 -4 -7 -2 -12 4 -12 6 0 8 -4 5 -10 -3 -5 -1 -10 5 -10 6 0 9 -4 6 -9 -9 -14 20 -21 79 -21 67 0 73 9 76 116 2 111 -6 124 -82 124 -38 0 -58 4 -54 10 8 12 4 12 -14 1z m129 -133 l0 -93 -60 3 -60 4 0 89 0 89 60 0 60 0 0 -92z"></path> <path d="M3070 4138 c0 -20 25 -24 36 -6 5 7 3 8 -6 3 -7 -4 -16 -2 -21 6 -7 11 -9 10 -9 -3z"></path> <path d="M3492 4141 c-40 -4 -66 -12 -72 -21 -5 -8 -10 -54 -10 -101 0 -106 10 -119 92 -119 57 0 87 17 72 41 -5 8 -2 10 8 7 10 -4 14 0 12 15 -1 12 -3 26 -3 30 -1 5 -6 5 -13 1 -6 -4 -8 -3 -5 3 4 6 7 35 8 64 1 30 7 58 13 62 6 5 0 5 -13 2 -19 -6 -23 -4 -18 9 4 9 3 15 -1 14 -4 0 -35 -4 -70 -7z m63 -121 l0 -90 -57 0 -58 0 0 90 0 90 58 0 57 0 0 -90z"></path> <path d="M3110 4111 c0 -6 4 -13 10 -16 6 -3 7 1 4 9 -7 18 -14 21 -14 7z"></path> <path d="M3137 4109 c7 -7 15 -10 18 -7 3 3 -2 9 -12 12 -14 6 -15 5 -6 -5z"></path>   <path d="M2312 4090 c-7 -11 -8 -20 -3 -20 9 0 24 30 18 36 -1 2 -8 -6 -15 -16z"></path>             <path d="M2265 3990 c-3 -5 -1 -10 5 -10 7 0 9 -7 6 -16 -3 -8 -2 -12 4 -9 13 8 13 32 1 40 -5 3 -12 1 -16 -5z"></path>          <path d="M2284 3928 c-4 -6 0 -16 9 -23 20 -14 22 -35 5 -35 -6 0 -8 -3 -5 -6 4 -4 14 -1 22 6 14 12 13 16 -7 38 l-23 25 30 -7 c22 -5 26 -4 15 4 -20 13 -37 13 -46 -2z"></path>                       <path d="M2297 3823 c-11 -10 -8 -143 3 -143 370 -3 1394 1 1401 5 5 4 9 37 9 76 l0 69 -703 0 c-387 0 -707 -3 -710 -7z m1386 -15 c2 -7 2 -28 -1 -45 -2 -19 1 -39 8 -48 10 -12 10 -15 -3 -15 -27 0 -39 26 -32 74 7 45 19 59 28 34z m-78 -8 c3 -5 12 -10 18 -10 7 0 6 4 -3 10 -17 11 -10 13 14 4 11 -4 13 -11 7 -22 -5 -10 -7 -30 -5 -47 l3 -30 -656 1 c-706 1 -672 -2 -667 52 1 12 2 26 3 31 0 6 16 12 34 14 75 9 1246 7 1252 -3z" class=""></path>                                    <path d="M2368 3490 l3 -170 -25 0 c-23 0 -66 -40 -66 -61 0 -5 321 -9 720 -9 399 0 720 4 720 9 0 21 -43 61 -66 61 l-25 0 3 170 3 170 -635 0 -635 0 3 -170z m1240 -30 c-2 -96 1 -165 6 -160 10 10 36 2 36 -12 0 -6 -7 -8 -15 -5 -8 4 -17 2 -20 -3 -6 -10 -279 -9 -289 1 -8 7 85 95 97 91 4 -1 5 3 1 10 -6 11 -5 11 8 0 22 -17 144 -20 133 -3 -3 5 5 13 17 17 22 7 22 7 3 15 -11 4 -15 8 -9 8 6 1 8 20 4 55 -3 30 -2 52 2 49 5 -2 6 6 3 20 -4 14 -2 28 4 32 13 8 5 25 -12 25 -7 0 -6 -4 3 -10 10 -7 11 -10 2 -10 -7 0 -15 7 -18 15 -5 11 -22 15 -64 15 -80 0 -90 -12 -90 -106 0 -47 -4 -73 -10 -69 -6 3 -7 -1 -4 -9 7 -19 -12 -22 -20 -3 -3 6 -4 3 -3 -8 1 -12 -3 -19 -11 -17 -8 1 -11 -2 -7 -8 3 -5 2 -10 -4 -10 -5 0 -11 -7 -13 -15 -2 -10 -8 -12 -17 -5 -12 7 -12 11 -3 23 18 21 22 216 5 210 -7 -3 -13 0 -13 6 0 18 -119 14 -126 -3 -3 -9 -12 -12 -22 -8 -14 5 -15 3 -5 -9 8 -9 9 -20 3 -29 -12 -18 -13 -33 -2 -27 11 8 8 -97 -3 -105 -6 -5 -4 -8 5 -8 10 0 7 -5 -8 -16 -12 -8 -22 -21 -22 -27 0 -7 5 -4 11 6 5 9 20 17 32 17 l22 -1 -22 -12 c-19 -10 -11 -12 50 -10 81 2 93 -2 75 -25 -11 -13 -11 -14 1 -7 11 6 13 4 7 -11 -4 -10 20 8 53 40 33 33 63 57 66 54 4 -3 -29 -40 -71 -82 -76 -75 -110 -98 -80 -54 22 31 20 45 -2 18 -18 -22 -22 -22 -246 -21 -125 0 -232 4 -238 7 -7 5 -8 2 -3 -6 6 -10 4 -12 -7 -7 -9 3 -20 1 -25 -4 -6 -6 -17 -2 -30 10 -16 15 -23 17 -32 8 -7 -7 -11 -7 -9 -2 2 6 -1 10 -7 10 -5 0 -9 -4 -7 -9 2 -5 -5 -3 -14 5 -12 10 -15 10 -10 1 6 -10 -23 -12 -143 -11 -83 0 -151 2 -151 3 0 2 10 11 22 22 12 10 18 14 15 7 -4 -6 -4 -14 1 -17 4 -2 9 12 9 32 3 46 6 72 9 72 14 0 33 -14 28 -21 -3 -5 1 -9 8 -10 83 -4 108 -3 108 5 0 5 6 3 13 -3 17 -14 28 -4 19 17 -5 15 -4 15 11 3 10 -8 20 -11 24 -7 3 3 15 -1 25 -11 34 -30 18 3 -22 48 -42 47 -48 59 -27 59 8 0 7 4 -3 11 -10 7 -11 12 -4 15 15 6 1 84 -17 95 -20 13 -129 11 -129 -2 0 -5 -5 -7 -12 -3 -7 4 -8 3 -4 -4 4 -7 4 -12 -1 -12 -4 0 -7 -38 -6 -85 1 -48 -3 -85 -8 -85 -5 0 -9 47 -8 110 l2 110 604 0 604 0 -3 -170z m-1048 30 l0 -90 -57 0 -58 0 0 90 0 90 58 0 57 0 0 -90z m750 0 l0 -90 -60 0 -60 0 0 90 0 90 60 0 60 0 0 -90z m245 0 l0 -90 -57 0 -58 0 0 90 0 90 58 0 57 0 0 -90z m-949 -62 c5 4 6 3 2 -2 -4 -5 -3 -15 3 -23 6 -7 8 -13 3 -13 -5 0 -18 13 -29 28 -12 17 -13 22 -4 15 9 -7 20 -9 25 -5z" class=""></path> <path d="M2680 3591 c-15 -17 -25 -75 -12 -67 4 2 6 -24 4 -58 -5 -81 9 -96 84 -96 40 0 59 5 73 19 14 14 16 21 8 25 -7 2 -7 5 -1 5 6 1 8 20 4 56 -6 52 -5 55 22 66 16 6 27 14 24 16 -2 3 -13 0 -24 -6 -24 -13 -38 9 -19 28 9 9 8 11 -6 5 -12 -4 -17 -2 -15 7 5 23 -123 23 -142 0z m130 -100 l0 -89 -54 -4 -55 -3 -3 93 -3 92 58 0 57 0 0 -89z" class=""></path> <path d="M2935 3602 c-5 -4 -12 -16 -13 -27 -2 -11 -9 -23 -15 -27 -9 -6 -9 -8 1 -8 8 0 12 -16 12 -48 0 -26 -6 -54 -12 -61 -11 -11 -10 -12 1 -6 9 5 12 3 9 -6 -9 -27 25 -47 89 -51 34 -2 60 -1 57 3 -2 4 2 13 9 21 8 7 12 19 9 26 -2 6 0 12 5 12 5 0 7 22 3 51 -6 43 -3 55 14 74 19 21 21 22 34 6 11 -14 12 -13 2 6 -5 12 -15 25 -22 29 -6 4 -9 3 -5 -2 5 -9 -20 -52 -26 -43 -2 2 -8 16 -15 32 -11 25 -16 27 -69 27 -32 0 -62 -4 -68 -8z m125 -114 l0 -93 -60 3 -61 4 2 89 1 89 59 0 59 0 0 -92z" class=""></path> <path d="M2617 3374 c-3 -4 5 -15 18 -26 14 -11 23 -24 20 -29 -4 -5 0 -6 8 -3 8 3 18 0 22 -5 3 -6 10 -9 14 -7 4 3 18 -4 29 -15 12 -11 22 -15 22 -10 0 16 -44 56 -60 55 -8 0 -27 10 -41 23 -14 13 -28 20 -32 17z"></path> <path d="M2665 3361 c-3 -5 -1 -12 5 -16 5 -3 10 1 10 9 0 18 -6 21 -15 7z"></path>                   <path d="M3710 3326 c0 -2 8 -10 18 -17 15 -13 16 -12 3 4 -13 16 -21 21 -21 13z"></path> <path d="M2770 2142 l0 -1083 -475 3 -475 3 0 -42 0 -43 1180 0 1180 0 0 46 c0 37 -3 45 -15 40 -9 -3 -224 -6 -478 -6 l-462 -1 -33 31 c-31 29 -32 33 -18 49 9 10 16 22 16 27 -1 5 -9 -2 -20 -15 -11 -12 -17 -28 -13 -34 4 -6 1 -7 -6 -3 -7 5 -10 11 -7 14 3 3 0 12 -7 20 -10 13 -9 15 5 9 9 -3 22 1 28 9 7 8 9 14 4 14 -5 0 -2 5 6 11 13 9 13 10 0 6 -8 -2 -16 -9 -16 -15 -1 -7 -2 -14 -3 -17 -1 -6 -46 38 -46 45 0 6 -54 59 -60 60 -3 0 -5 2 -5 5 0 3 0 9 0 14 0 15 52 61 63 54 5 -3 7 -1 4 4 -4 6 9 23 28 37 34 26 48 24 23 -3 -8 -8 -8 -11 -2 -8 26 14 35 -22 33 -123 -1 -55 -6 -103 -11 -106 -4 -3 -8 -10 -8 -15 0 -6 5 -7 12 -3 6 4 8 3 5 -2 -3 -5 3 -21 14 -34 18 -25 19 -8 19 1055 l0 1080 -230 0 -230 0 0 -1083z m77 1040 c-5 15 9 17 179 16 114 -1 181 -5 175 -11 -5 -5 -7 -16 -4 -23 3 -8 -1 -22 -8 -31 -11 -13 -11 -15 -1 -9 11 6 13 -17 11 -126 -1 -73 1 -142 5 -153 7 -19 7 -19 -7 -3 -8 10 -17 15 -21 11 -3 -4 6 -19 21 -35 28 -30 26 -40 -3 -11 -20 20 -41 25 -50 12 -3 -5 -10 -6 -16 -3 -7 4 -8 2 -4 -4 4 -7 15 -8 30 -2 20 7 25 4 36 -18 8 -15 13 -30 12 -34 -1 -4 -2 -291 -2 -638 0 -347 -4 -628 -9 -626 -5 3 -16 -3 -26 -14 -10 -11 -21 -17 -26 -15 -4 3 -11 0 -15 -6 -4 -8 -3 -9 4 -5 15 9 15 1 1 -25 -9 -17 -13 -18 -27 -7 -15 12 -16 11 -4 -4 14 -17 9 -38 -9 -38 -6 0 -7 6 -3 13 5 8 3 8 -9 -2 -9 -7 -15 -17 -12 -21 3 -4 -2 -11 -11 -14 -8 -3 -12 -11 -9 -16 4 -7 23 4 46 27 22 21 44 37 48 36 5 -1 6 8 3 20 -5 20 -4 21 11 8 13 -11 15 -17 6 -28 -7 -7 -14 -12 -16 -10 -2 3 -28 -20 -58 -49 -52 -52 -88 -76 -50 -34 16 17 16 20 2 20 -9 0 -18 -4 -22 -9 -6 -10 -59 34 -61 50 -1 5 -3 11 -4 14 -3 5 -7 20 -9 32 0 4 -6 2 -13 -5 -16 -16 -59 23 -51 47 4 12 2 13 -4 3 -8 -10 -12 -10 -22 2 -9 10 -9 16 -1 21 8 5 8 11 -1 21 -8 10 -15 11 -24 4 -9 -7 -15 -8 -19 -1 -4 6 -6 290 -6 633 l0 623 55 54 c71 68 66 78 -6 11 -59 -55 -64 -58 -54 -32 4 9 7 100 7 202 0 138 2 178 10 157 6 -17 15 -26 23 -23 13 5 68 -45 66 -61 -1 -4 2 -8 7 -9 21 -2 42 -18 49 -37 12 -35 10 -41 -19 -63 -15 -11 -24 -24 -20 -28 4 -5 -2 -6 -13 -4 -12 2 -19 -2 -17 -9 3 -16 -31 -50 -45 -46 -15 5 -38 -26 -27 -37 6 -6 41 23 92 75 78 79 91 96 75 94 -9 -1 -26 31 -19 38 3 3 14 -4 23 -16 l18 -23 19 21 c11 12 14 21 8 21 -6 0 -12 -6 -14 -12 -3 -9 -18 -2 -42 20 -41 36 -59 43 -31 12 10 -11 16 -20 13 -20 -2 0 -17 14 -34 32 -16 18 -22 27 -13 20 9 -6 19 -9 22 -6 7 7 -53 64 -68 64 -5 -1 1 -10 14 -21 13 -11 21 -23 17 -27 -4 -4 -17 6 -28 21 -14 20 -23 25 -28 17 -5 -9 -9 -9 -14 -1 -4 6 -2 11 5 11 7 0 2 12 -12 28 l-24 27 29 -25 c21 -18 28 -20 23 -8z m-14 -327 c-3 -9 -8 -14 -10 -11 -3 3 -2 9 2 15 9 16 15 13 8 -4z m29 -1415 c38 -38 72 -70 75 -70 3 0 0 6 -6 14 -9 11 -9 16 0 22 7 4 9 3 5 -4 -3 -6 -2 -13 4 -17 6 -4 8 -10 6 -14 -3 -4 10 -22 28 -39 26 -25 36 -28 47 -19 11 10 11 9 0 -5 -13 -18 -14 -17 48 -66 19 -14 21 -21 11 -27 -9 -6 -11 -4 -5 5 6 9 4 11 -5 5 -9 -6 -11 -4 -5 6 8 12 6 12 -8 0 -10 -8 -20 -11 -24 -7 -3 3 -1 6 6 6 7 0 9 5 6 10 -4 6 -11 8 -16 4 -5 -3 -8 0 -7 7 2 6 -3 14 -10 16 -15 6 -12 -16 6 -35 7 -8 10 -17 7 -21 -2 -5 7 -7 20 -5 14 1 25 -2 25 -7 0 -5 5 -9 11 -9 5 0 8 4 5 9 -3 5 1 12 10 15 8 3 12 2 9 -3 -3 -5 4 -16 15 -24 25 -17 15 -30 -12 -16 -15 8 -23 8 -32 -1 -8 -8 -7 -10 4 -6 20 7 51 -17 53 -42 1 -13 7 -19 18 -17 12 3 16 -1 12 -11 -3 -7 -10 -11 -15 -8 -6 4 -5 -3 1 -15 13 -24 23 -29 15 -7 -9 24 14 28 28 4 7 -13 12 -26 13 -30 0 -3 4 -10 8 -15 5 -4 8 -3 7 2 -5 24 1 27 16 9 14 -17 15 -17 10 -1 -4 14 -2 16 12 8 9 -5 213 -10 452 -10 239 -1 437 -4 439 -7 3 -2 -177 -4 -398 -4 -222 1 -406 -1 -409 -4 -3 -3 -16 -3 -28 0 -16 4 -24 2 -24 -6 0 -9 -4 -9 -13 -2 -14 12 -517 9 -539 -3 -7 -4 9 15 35 42 27 28 45 53 40 56 -5 3 -10 70 -11 149 -2 99 1 138 8 128 6 -9 10 -10 10 -3 0 6 -5 15 -11 19 -6 3 -9 15 -6 25 3 11 0 19 -6 20 -7 0 -6 3 2 6 11 5 11 7 0 14 -12 7 -12 9 0 9 11 0 10 5 -4 20 -10 11 -14 20 -10 20 4 0 39 -31 77 -70z m-18 49 c-3 -5 -10 -7 -15 -3 -5 3 -7 10 -3 15 3 5 10 7 15 3 5 -3 7 -10 3 -15z m359 -25 c-16 -25 -40 -37 -47 -25 -9 13 21 47 42 47 18 0 18 -2 5 -22z m-3 -71 c0 -32 -12 -23 -16 12 -1 14 2 23 7 20 5 -4 9 -18 9 -32z m-484 -368 c-9 -9 -27 -13 -48 -11 -18 2 -211 5 -428 7 l-395 4 400 5 c220 3 419 6 443 8 39 2 42 0 28 -13z" class="" stroke-width="1"></path>    <path d="M3155 1500 c-4 -6 -10 -8 -15 -5 -5 3 -11 1 -14 -4 -8 -13 22 -7 36 7 7 7 9 12 6 12 -4 0 -10 -5 -13 -10z"></path> <path d="M3044 1409 c-8 -14 14 -19 25 -6 8 10 7 14 -5 14 -8 0 -17 -4 -20 -8z"></path> <path d="M2813 1457 c0 -17 24 -39 31 -28 3 4 -3 16 -13 25 -13 12 -18 12 -18 3z"></path>   <path d="M3170 1458 c-12 -22 -12 -22 6 -6 10 10 15 20 12 24 -4 3 -12 -5 -18 -18z" class=""></path>                                                                                             <path d="M3096 1321 c-3 -5 2 -15 12 -22 15 -12 16 -12 5 2 -7 9 -10 19 -6 22 3 4 4 7 0 7 -3 0 -8 -4 -11 -9z"></path> <path d="M3074 1288 c-4 -7 -4 -10 1 -6 4 4 15 2 24 -5 14 -11 14 -10 2 6 -16 20 -18 21 -27 5z"></path>                                                                                                                    </g> </svg>